/* XPM */
static char * closed_door_xpm[] = {
"64 64 16 1",
" 	c None",
".	c #211926",
"+	c #0B0A12",
"@	c #48373E",
"#	c #604B55",
"$	c #342731",
"%	c #A28492",
"&	c #7F6772",
"*	c #18131D",
"=	c #251618",
"-	c #3A2024",
";	c #542924",
">	c #6B352C",
",	c #724037",
"'	c #C27359",
")	c #B36552",
"  .........+++................    ................+++.........  ",
"  .........+++................    ................+++.........  ",
"..@@@@@@#############@@@@@@@@$    $@@@@@@#################@@@@..",
"..#%%%%%%%%%%%%%%%%%%%%%%%%&&$    $&&%%%%%%%%%%%%%%%%%%%%%%%%#..",
"..#%%%%%%%%%%%%%%%%%%%%%%%%&&$    $&&%%%%%%%%%%%%%%%%%%%%%%%%#..",
"..#%%%%%&%%%%%%%%%%%%%%%%%%&&$****$&&%%%%%%%%%%%%%%%%%%&%%%%%#..",
"..&#######################&##$****$@@&#######################&..",
"..&#######################&##$****$@@&#######################&..",
"..@&&&&&&&&&&&&&&&&&&&&&&&@&&@****@&&@&&&&&&&&&@@@&&&&&&&&&&&@..",
"..@#######################@&&@****@&&@#######################@..",
"..@#######################@&&@****@&&@#######################@..",
"..@##@&&&&&@######@@&&&&@@$&&@$$$$$&&$@@&&&&@@######@&&&&&@##@..",
"..@##@##&&&@######@@&##&@@@&&&&&&&$##$@@&##&@@######@&&&##@##@..",
"..@##@##&&&@######@@&##&@@@&&&&&&&$##$@@&##&@@######@&&&##@##@..",
"..=--$#####$---===$$####$$$&&&@@@@$##$$$####$$=-----$#####$--=..",
"..=;;;$$$$$;;;;===;;$$$$==$###@@$$*##$==$$$$>>->>>>>>$$$$$>>>=..",
"..=;;;$$$$$;;;;===;;$$$$==$###@@$$*##$==$$$$>>->>>>>>$$$$$>>>=..",
"..=;;;;;=>>>>>>;;;>>>>>>==$&&###$$*##$==>>>>>>->>>>>,>>=>>>,,=..",
"..=;;>>>=>>,,,>;;;,,>,,>--$#####$$*##$-->,,,>>;,,,,,>>>;>>,,,-..",
"..=;;>>>=>>,,,>;;;,,>,,>--$#####$$*##$-->,,,>>;,,,,,>>>;>>,,,-..",
"===;;>,,->>,>>>;;;,,,,,>--@#####$$*##$--,,,,,,;,,,,,>>>;,,,,,-..",
"..=;;>,,;>>,>>>;;;,,,,,>--$###@@$$*##$--,,,,,,;,,,,,>,,;,,,,,-..",
"..=;;>,,;>>,>>>;;;,,,,,>--$###@@$$*##$--,,,,,,;,,,,,>,,;,,,,,-..",
"..->>,,,;>>,,,>;;;,,,,,>;;$###@@$$*##$--,,,,,,;,,,,,,,,;,,>>>-..",
"..->>,,,;>>,,,>--->>,>>>;;$##$*****##$--,,,,>>;,,,,,,,,;,,>>>-..",
"..->>,,,;>>,,,>--->>,>>>;;$##$*****##$--,,,,>>;,,,,,,,,;,,>>>-..",
"..->>,,,->>,>>>--->>>'''>>$##$&&&&&##$-->,,,>>;>>>,,,>>;,,,>>-..",
"..->>,>>->>,>>>)))''',,>,,.##$&&&&###@;;>>>>>>->>>,,,>>;,,,>>-..",
"..->>,>>->>,>>>)))''',,>,,.##$&&&&###@;;>>>>>>->>>,,,>>;,,,>>-..",
"..->>,>>->>)''',,,,,,>>-,,.##$@@#####@;;;'');;->>>>>,>>->>,>>-..",
"..->>>))))),,,,,,,,,,,,,,,.##$@@#####@--,,,,))')))>>>>>->>,>>-..",
"..->>>))))),,,,,,,,,,,,,,,.##$@@#####@--,,,,))')))>>>>>->>,>>-..",
"..->>),,>,,,,,,,,,,,,>>>;;.##$@@#####$--,>>>,,,,,,))'''->>,>>-..",
"..->>),,>,,,,,,,,,,,,>>>;;.##$@@#####$--,>>>,,,,,,))'''->>,>>-..",
"**=--;,,->>,,,,>>>>>>;;;--.##*$$#####$--,-->,,,>>>,,,,,))))>>-..",
"**=--;,,>>>>>>>;;;;;;---..$##*$$#####@-->>>,,,,,,,,,,,,,,,>))-..",
"**=--;,,>>>>>>>;;;;;;---..$##*$$#####@-->>>,,,,,,,,,,,,,,,>))-..",
"..=--;>>>>>;;;;------;;;;;$##*$$#####$;;-;;>>>>,,,,,,,,>>>>;;-..",
"..=---;;;;;----;;;;;;,,>;;$##*$$#####$;;.---;;;>>>>>>>>,-->;;-..",
"..=---;;;;;----;;;;;;,,>;;$##*$$#####$;;.---;;;>>>>>>>>,-->;;-..",
"..=;;------;;;>;;;>>,,,>;;@##***$$$##$;;;;;;------;;;>>>>>>;;-..",
"===;;;;;;>>,,,>;;;>>,,,>--@##&&&&&$##$;;>,,,>>;;;;-----;;;;---..",
"===;;;;;;>>,,,>;;;>>,,,>--@##&&&&&$##$;;>,,,>>;;;;-----;;;;---..",
"==->>;,,;>>,,,>;;;>>,,,>--@###&&&&$##$-->,,,,,;>>>;;;;;-------..",
"===>>>,,-,,,,,>--->>>>>>==$#######$##.==>>>>,,->>>,,,,,;>>;;;=..",
"===>>>,,-,,,,,>--->>>>>>==$#######$##.==>>>>,,->>>,,,,,;>>;;;=..",
"**=>>>,,=>>>>>>===;;;;;;==*#######$@@.==;;;;>>->>>>>>>>->>>>>=**",
"**=--;;;=;;;;;;@@@@@@@@$$$*###@@@@$@@.$$$$$@;;-;;;;;;;;-;;;;;=**",
"**=--;;;=;;;;;;@@@@@@@@$$$*###@@@@$@@.$$$$$@;;-;;;;;;;;-;;;;;=**",
"**@$$$$$$@@@@@@&&&&&&&&&&&*#####@@$@@.&&&&&&@@@@@@@@$$$$$$$$$$**",
"**@&&&&&&&&&&&&###########*##&##@@*##.######&&&&&&&&&&&&&&&&&$**",
"**@&&&&&&&&&&&&###########*##&##@@*##.######&&&&&&&&&&&&&&&&&$**",
"**$###@@@#################*###@@$$*##*###@@@############@@@@@$**",
"**$@@@@@@@@###############.##******##*@@@@@@###@@@@@@###@@@@@$**",
"**$@@@@@@@@###############.##******##*@@@@@@###@@@@@@###@@@@@$**",
"**.@@@@@@@@#########@@@###.##*++++@##*@@@@@@@@@@@@@@@@@@@@@@@$**",
"**.@@@$$@@@@@@@@@@@@@@@@@@.##*++++$##*@@@@@@@@@@@@$$$@@@@@@@@$**",
"**.@@@$$@@@@@@@@@@@@@@@@@@.##*++++$##*@@@@@@@@@@@@$$$@@@@@@@@$**",
"**.$$$@@@@@@@@@@@@@@$$$@@@*##$++++$##*@@@$$$$$$$$$$$$$$$@@$$$$**",
"**...$$$@$$@@@@@@@$$$$$$..*##.++++$##*$$$$$$$$$$$$$$$$$$$$$$$$**",
"**...$$$@$$@@@@@@@$$$$$$..*##.++++$##*$$$$$$$$$$$$$$$$$$$$$$$$**",
"  .$$$$$$.....$$$$$$$$$$$$*$$.++++$$$*$$$$$$$$$$$$$$$$$$$$$$$$  ",
"  ............................    ****************************  ",
"  ............................    ****************************  "};
