/* XPM */
static char * heart_hud_xpm[] = {
"32 32 82 1",
" 	c None",
".	c #000000",
"+	c #100000",
"@	c #6D0000",
"#	c #700000",
"$	c #3B0000",
"%	c #A10000",
"&	c #A60000",
"*	c #A40000",
"=	c #9A0000",
"-	c #250000",
";	c #160000",
">	c #FF0000",
",	c #640000",
"'	c #D00000",
")	c #870000",
"!	c #320000",
"~	c #910000",
"{	c #DB0000",
"]	c #D70000",
"^	c #FF2727",
"/	c #FF3232",
"(	c #FF2F2F",
"_	c #FF1F1F",
":	c #E00000",
"<	c #BD0000",
"[	c #E10000",
"}	c #EE0000",
"|	c #D60000",
"1	c #850000",
"2	c #7D0000",
"3	c #600000",
"4	c #B70000",
"5	c #FFFFFF",
"6	c #FFFCFC",
"7	c #FF8383",
"8	c #EF0000",
"9	c #890000",
"0	c #6E0000",
"a	c #FF0202",
"b	c #FF1414",
"c	c #950000",
"d	c #400000",
"e	c #880000",
"f	c #610000",
"g	c #AF0000",
"h	c #FF0505",
"i	c #FF6363",
"j	c #FF1111",
"k	c #740000",
"l	c #7E0000",
"m	c #7C0000",
"n	c #FF1212",
"o	c #FFB9B9",
"p	c #FF5454",
"q	c #900000",
"r	c #8F0000",
"s	c #FF1616",
"t	c #FF7373",
"u	c #960000",
"v	c #980000",
"w	c #E80000",
"x	c #0C0000",
"y	c #150000",
"z	c #D10000",
"A	c #CC0000",
"B	c #0B0000",
"C	c #CE0000",
"D	c #8A0000",
"E	c #590000",
"F	c #DE0000",
"G	c #4C0000",
"H	c #3A0000",
"I	c #2F0000",
"J	c #2D0000",
"K	c #180000",
"L	c #8E0000",
"M	c #770000",
"N	c #B00000",
"O	c #CF0000",
"P	c #800000",
"Q	c #5D0000",
"     ........      ........     ",
"     ........      ........     ",
"  ..+@@#@@@@$..  ..$@@%&*==-..  ",
"  ..;>>>>>>>,..  ..,>>>>'))!..  ",
"  ..;>>>>>>>,..  ..,>>>>'))!..  ",
"..~{]^^/(_>>:{<..<{[>>>>}||123..",
"..4>>55657>>>>8..8>>>>>>>>>9)0..",
"..4>>55657>>>>8..8>>>>>>>>>9)@..",
"..4>a55b>>>>>>>>>>>>>>>>>>>c)d..",
"..4>a55b>>>>>>>>>>>>>>>>>>>e)f..",
"..g>hiij>>>>>>>>>>>>>>>>>>>9)k..",
"..4>>>>>>>>>>>>>>>>>>>>>>>>))l..",
"..4>>>>>>>>>>>>>>>>>>>>>>>>e)m..",
"..g>noop>>>>>>>>>>>>>>>>>>>q)r..",
"..4>s55t>>>>>>>>>>>>>>>>>>>u)v..",
"..4>s55t>>>>>>>>>>>>>>>>>>>v)=..",
"  ..;>>>>>>>>>>>>>>>>>>>w))x..  ",
"  ..;>>>>>>>>>>>>>>>>>>>w))x..  ",
"  ..y{{8>>>>>>>>>>>>>>zA4kkB..  ",
"     ..C>>>>>>>>>>>>>>D)@..     ",
"     ..C>>>>>>>>>>>>>>D)@..     ",
"     ..E@)>>>>>>>>>FvvGHI..     ",
"       ..J>>>>>>>>>'))K..       ",
"       ..J>>>>>>>>>'))K..       ",
"         ...:>>>>L)M...         ",
"         ...:>>>>L)M...         ",
"          ..N{OAAPkQ..          ",
"            ..-))-..            ",
"            ..-))-..            ",
"            ..KHHK..            ",
"              ....              ",
"              ....              "};
