/* XPM */
static char *ba633b4dbac8426ea0855f68ef39645cglNqqeLPZpiG91Yu[] = {
/* columns rows colors chars-per-pixel */
"64 64 11 1 ",
"  c #5A6D41",
". c #525D39",
"X c #6E6D6D",
"o c #888788",
"O c gray65",
"+ c gray38",
"@ c #627941",
"# c #738552",
"$ c gray71",
"% c #7A8F55",
"& c gray32",
/* pixels */
" ..  ..XXXooOoX+... @@  @#@@ .. @@##@   ..  oOOOOOOO$OO$oOoooo##",
"@  .  ..XooooOoXX. @@ @  @# .. @@##%##@  ...XoooOoOOO$$O$OOoX##@",
"#@   .oXooOoOOOoX#. @ . @ .. @###%%%%###@@ . +XooOooOO$$OOoXo#@#",
"#@ @..%oOOOOOOoooo....   ..   @#%%%##%#@@## . XXoooOOOOOOoooOo@@",
"@#@ . @%%$OOOoOooOo..  ..  @@@  #%%%#@#@##XX. .+XXXoooOOOOOooOO@",
" @ . @%%$$$$OOooOooX......  #  @##%%##@# @oX+.. +XXXoXooOOooooO.",
"  .  %O$OO$$$OoOOOoXX...  @##%%#%%%%###@ oooX+.. X++XooXXoOooooX",
". . ooOOO$O$OOOOOoo.  .   #%##%%#%%##@@ ooXoX+ .. &++XXXoooXoXXo",
"+..ooOOOOOOOOOOooooX.  @ #%##@%#%%##@   oXoXXX @ . +X+XXXXooXXXX",
"+.XXOoOOOOOOOOOOoXoX&.. @@##@@##%#o#@ o XXXX+X@   ..+XX++XXXX++X",
"+X+XoOOOOOOoOOooXXXX++.. #@##@@###Xo  oooXX+  #@@  .. ++XX&&++X+",
"+++XXooOOooOoooooXX++ . @#@@#@ @#ooo ooXXX+ . @#@@  ... +&&+X++X",
"+&++XXoooOoooXoXXX+& .  oO@#@  #@ooooXoXX+ .   ##@@@  ..   &+&&+",
"++&+XXXoOoXXXoXXX@ ..  XXoo#@  @#XXoooXX++.. @ @###@@.   .     &",
".++X+X+XoooXXX++ .. +X&+oXoo    +XooXX++&+ . @@ %#%##@@ ...    .",
". ..++X+XXXX+&#@.. XX++XXXXo @  ++XX+XX&+XX   @ %%##@@@@  ..@@  ",
" ..++++XX++...@##OooXX+&&++X@@ @XX++X+&&XoO@  #@@%%%##@@@@@  @@ ",
"..++&+++ ....@#oOOOoOoX+&&X+X@@ ++&&&&++XO$#@ #@@#%%%##@@@ @    ",
"+&&++&& . @##OOOO$OOoOoX+&+XX @+XXX&+&&+o$O$# ##@@%##@@# @@@@  X",
"XX+&++ . ###%%OO$OO$OOoo++&++  XXX++&&XXOO$$#@#O####@@@@   @ &++",
"OOoXX+ .##%%%%%OOOOO$$OOoX++X+ +X++&XX+oOooO##OO##o@#@@ @ . &Xoo",
"$OooX ..@%%##%#%$$O$$$$OOoX++&+++++++XXoooOoO#oO#ooO##@X@ ..XooO",
"$$$Oo .. @#%##@@#OOOO$OOooXXX+&&&&++X+Xoooooo#O#OoXo@@XX ..XXOOO",
"O$$$OX.. @@@####@OOOOOOoOooX++++&&&++++XoooooOOooooXX@X+X.+Xoo$O",
"$oOooo ..@ ##@@  @OOOOooooXXX++&+&  ..  XXoXooooooXX++XX++XoO$O$",
"OOoooXo .  @ @  @OOOoooooXXXXX++ .... ... XoXXoooXX++X+X++oOOO$$",
"oooOOoXo..  @@@.oOOoOoooXoXoX+X.. ..   ... XXoXo+X+XXXX+++oooOOO",
"OoOOoooX+  ....oooOOoooooXoX++  .. #@@..  . X+++X+XXoXX++&XoOoOO",
"OOooXoXXX++ @  @@ooooooXooXXX ..  #@@##@@@ ..+XX+XooOo+X&&+XoXoO",
"OooooXX+XX@@  ..  oXoXXXXoXX ..  @%@##%#@   ..XXooOOoXX+&++XXoXX",
"ooXXXX++@ ....  ...@XoXXXXX . .@%#%##%%#@@@  ..+XoOoXX+&+&++XXXo",
"oooXX++ ....@@   .  @@XX+XX.. @#%%##%%####@@.  .XXoXX+&&++X++XXX",
"XXXX+X.. @#%%##%@ ...  .++..  ###%#@#%@##@@##@@ . XX++X&&X+XXX+X",
"+XX.. . @%%%##%%%#  ..  .X&. @#O##@$O##@# #### ... +++++&&++XX++",
"X..  .  %%###%#%%%#   .. &&+@@oO@#OOo#@  o##@#. @ . +X+ ..&&&+XX",
"..  @.@ %%%####%##  @. .. X+X@OoO@oooo  OO@#@@ @@ . X+ .....X++X",
". .@@ @#%####@@## @@#@## .+XXXoOOoOoXXoOo   #@@@ @.  ..    ..X++",
" @ @ @@##%@#@@##@@@###@   .&+XXooooooXXo   @@@@@   . . @  . ..X+",
"+@@X  #@##@@@#@#@@##@  @ ..++++XooXXXo@  @@@ @@  . .. @@     ..X",
"o+XX  @@#@@@ @@@@@@@#@   .&&+++++XoXXXo@@ @@  @ .  . @@ @@   . o",
"OoX  @ @@@@ @@#@@@@ ....X+++&&++++XXXoXX+@ @ @ ..   @@ @#@ @@ Oo",
"OOX.  @@@@@@  @#  ....X++++XX+X+XXXX+XXXX++ @  ...  @  @# @##OOO",
"O$OX...  @@@@    ....XXX+&  . XX&&++XX++++ @@  . . @@ @#@ ##$$$O",
"$Oo+X.  @@     .. ...+++@ .. @ .X&&++XX++X @  ..  @  @##@@$$$$OO",
"OooX++..  .. .. XX ...+ ...@@#%%#@X&+++X+++ @ .@ @@ OO@##$$$OOOO",
"OoXXX+ ... +.. @@XX ....  @#%%#%%#@ X+XXXXX. .  @@oOOOO##$O$$OOO",
"oXX++XX .+XX ....  .    @@#%%#%##%#@ XX+X+++.. @oXooOoO#OO$OOOoo",
"XXXX+++  .XooX  ...  @   #%%#@#######@XX++&&&.+XXoXXXooOOoOOOOOo",
"oX++XX. @ %#%#@@   .. @ @%%%#@@##@#@##@XXX+X+&X+XXXXooOOoOoOOooo",
"o++X.. @ ##%%##@@   ..@@#%#%@@@@#@@O###oX+XXX++..+XoXoooooooOOoo",
"XXX.   @##%%###@ooX+ . @%%##@#@@@@oO@#oooXXXXX....+XoXoooooooooo",
"XX.  @@@@##%##@#oXX++ .#%#####@#@#OOo@oXooXX++X. ....XXXoXoooooX",
"X.. @#%#@@@$##@#XoXX++. #%##@#OO##ooooooXoooXX+ .   ...oooXXoXXX",
"+. .%%#@#@#OO##ooooXX+ .#%###@Ooo#oXooXXXXoXX+++@@ @@ ..XooXXoXX",
"..@@#%%###ooO@#oooXX+X . ##@#oXooXXooXXoXXX++X+& @@ @@X+XXXoXX+.",
". #@###$oooOoo@XooooXX..  #@@ooXXXooXooXoX+++++#@@#@+++XXXX  @..",
" @###$OOOooXooooXooX+ . .. @oXXXXoXoooooXXXX&&@@#@#++XX+&@ @@  .",
".##@@#Oo@ooXXooXXXoX+.X+ . .XXXXXXXXooXX++X&&+++##X+XX++@@@@  ..",
"..###@@@oXXXoXXXooXXXX+&& ..++XXXXooXXX+X+&++XXXX#OooXXX++@ ....",
"  oO##@oooXXXoXXXXXXX+++. ..XX+XXXXXX++XXX++++XXoOOOoooXX+X@ ...",
".+XooooXXX+XXX+++X++++@@   . XXXXXX+++XX++XX+XooOO$O$oOooX+X+  .",
" .XXoXooX+X++..+X++ .. @@ ... X+XXXX+@ +X++XXooOO$$$OOoOooXXXX@@",
"@@ .XXXXXX++X+..  ... .. @ ....  &&@@ . XXXXoOoO$$$OOOOoOOoXX+X ",
"@ ....XXXXXXXX++.  .   @@@@   .... @ ... XooOoOOO$OOOOOOOoooXX++"
};
