/* XPM */
static char * OPEN_xpm[] = {
"64 64 14 1",
" 	c None",
".	c #5B6567",
"+	c #495254",
"@	c #BD971B",
"#	c #AB7600",
"$	c #985400",
"%	c #49383D",
"&	c #3D241E",
"*	c #6D8084",
"=	c #D4CA4A",
"-	c #809EA5",
";	c #C8AE3C",
">	c #947E43",
",	c #1A1A18",
".+....+@###                                  @@@@...............",
"+++++++####                                  @###+++++++++++++++",
"+++++++###$                                  @###+++++++++++++++",
"%%%++++####                                  @###+++&&&&&&&&&&&&",
"+++++++###$                                  @###++&%+++++++++++",
"++++.++###$                                  @###++&++++++++++++",
"++++.++###$                                  @###++&++++++++++++",
"....*..@@@#                                  =@@@..%............",
"++++.++###$                                  @###++&++++++++++++",
"....*..@@@#                                  =@@@..+............",
"....-..@@@#                                  =@@@..+............",
"....*..@@@#                                  =@@@...............",
"....-..@@@#                                  =@@@....***-*----*.",
"....-..@@@#                                  =@@@..............*",
"....-..@@@#                                  =@@@...............",
"....-..@@@#                                  ;@@@@@@@@@@@@@@@>..",
"....-..@@@#                                  =@@@@@@@@@@@@@@@@@.",
"...*-..@@@@                                  ;@@@@@@@@@@@@@@@@@>",
"----...@@@#                                  ;;;;;;;;@;@;@@@@@@@",
".......@@@@                                                 @@@@",
".......@@@@                                                 @@@@",
"+++....@@@@@@@@@@@@@@@@@@$                                  ;@@@",
".......>@@@@@@@@@@@@@@@@@@                                  =@@@",
"....*...@@@@@@@@@@@@@@@@@#                                  =@@@",
".....-...>@@@@@@@@@@@@@@@@                                  =@@@",
"......*...............@@@#                                  =@@@",
".......*..............@@@#                                  =@@@",
"........+%%%%%%+++....@@@#                                  =@@@",
"......................@@@#                                  =@@@",
"...................*..@@@#                                  ;@@@",
"...................*..@@@#                                  =@@@",
"...................*..@@@#                                  ;@@@",
"...................*..@@@#                                  ;@@@",
"...................-..@@@#                                  ;@@@",
"...................-..@@@#                                  ;@@@",
"..................*-..@@@#                                  ;@@@",
".------------------...@@@@                                  ;@@@",
"-.....................@@@#                                  ;@@@",
"......................@@@@                                  ;@@@",
"..>@@@@@@@@@@@@@@@@@@@@@@#                                  @@@@",
".@@@@@@@@@@@@@@@@@@@@@@@@@                                  ;@@@",
">@@@@@@@@@@@@@@@@@@@@@@@@@                                  @@@@",
"@@@@@@@;;;;;;;;;;;;@;@;@@$                                  ;@@@",
"@@@@                                                        @@@@",
"@@@@                                                        @@@@",
"@@@@                                  @@@@@@@@@@@@@@@@@@@@@@@@@@",
"@@@#                                  @@@@@@@@@@@@@@@@@@@@@@@@@>",
"@@@@                                  ;@@@@@@@@@@@@@@@@@@@@@@@@.",
"@@@#                                  @@@@@@@@@@@@@@@@@@@@@@@>..",
"@@@#                                  ;@@@......................",
"@@@#                                  =@@@.....................+",
"@@@#                                  =@@@...%%%%%%%%%%+%++++++.",
"@@@#                                  =@@@..%+..................",
"@@@#                                  ;@@@..%...................",
"@@@#                                  =@@@..%...................",
"@@@$                                  @@@@..%...................",
"@@@#                                  ;@@@..+...................",
"@@@$                                  @@@@..+...................",
"@@@$                                  @@@@..+...................",
"@@@$                                  @@@@......................",
"@@@$                                  @@@@....******-----*-*----",
"@@@$                                  @@@@......................",
"@@@$                                  @@@@......................",
"&&&,                                  ,&,,,,%,%%%%%%%%%%&%&%%&%&"};
