/* XPM */
static char * open_door_xpm[] = {
"42 42 15 1",
" 	c None",
".	c #211926",
"+	c #604B55",
"@	c #48373E",
"#	c #342731",
"$	c #A28492",
"%	c #7F6772",
"&	c #251618",
"*	c #542924",
"=	c #18131D",
"-	c #6B352C",
";	c #3A2024",
">	c #724037",
",	c #C27359",
"'	c #B36552",
".........                        .........",
"+++@@@@@#                        #@@@@++++",
"$$$$$$$%#                        #%$$$$$$$",
"$$$$$$$%#                        #%$$$$$$$",
"++++++%+#                        #@%++++++",
"%%%%%%@%@                        @%@%%%%%%",
"++++++@%@                        @%@++++++",
"+@%%%@#%@####                    @%#@%%%@+",
"+@%+%@@%%%%%#                    @+#@%+%@+",
"&#+++##%%@@@#                    @+##+++#&",
"&*###&#++@##=                    @+#&###-;",
"*----&#%++##=                    @+#&----;",
"*>->-;#+++##=                    @+#;->>-*",
"*>>>-;@+++##=                    #+#;>>>>*",
"*>>>-;#++@##=                    #+#;>>>>*",
"*>>>-*#++@##=                    #+#;>>>>*",
";->--*#+#====                 @@@#+#;>>>-*",
";--,,-#+#                     %%%%+#;->>-*",
"',,>->.+#                     %%%++@*----;",
">>>-;>.+#                     @++++@**,'*;",
">>>>>>.+#                     @++++@;>>>',",
">>>--*.+#                     @++++#;>-->>",
"---**;.+=                     #++++#;>;->>",
"***;;.#+=                     #++++@;-->>>",
";;;***#+=                     #++++#*;*---",
"***>-*#+=                     ====+#*.;;**",
"*->>-*@+==###                    @+#****;;",
"*->>-;@+%%%%#                    @+#*->>-*",
"*->>-;@++%%%#                    @+#;->>>*",
";----&#+++++#                    @+.&--->;",
"&****&=+++++#                    @@.&***-;",
"@@@@##=++@@@#                    @@.###@*;",
"%%%%%%=+++@@#                    @@.%%%%@@",
"++++++=+%+@@=                    @+.++++%%",
"++++++=++@##=                    @+=++@@++",
"++++++.+====                     @+=@@@@++",
"++@@++.+=                        @+=@@@@@@",
"@@@@@@.+=                        #+=@@@@@@",
"@@##@@=+#                        #+=@@####",
"@####.=+.                        #+=######",
"######=#.                        ##=######",
".........                        ========="};
