/* XPM */
static char * wall_xpm[] = {
"64 64 195 2",
"  	c #0A0304",
". 	c #170607",
"+ 	c #300B0D",
"@ 	c #0A050A",
"# 	c #563937",
"$ 	c #4C312C",
"% 	c #2A2424",
"& 	c #53534C",
"* 	c #655B57",
"= 	c #66564B",
"- 	c #453A38",
"; 	c #462928",
"> 	c #6F514D",
", 	c #351D24",
"' 	c #270508",
") 	c #95887A",
"! 	c #85776A",
"~ 	c #847B77",
"{ 	c #6A3332",
"] 	c #8E716C",
"^ 	c #A4998A",
"/ 	c #9B9C94",
"( 	c #686567",
"_ 	c #73736C",
": 	c #93948C",
"< 	c #5B5C5B",
"[ 	c #646B6B",
"} 	c #444B4C",
"| 	c #444A44",
"1 	c #4B4C4C",
"2 	c #4B4B44",
"3 	c #646A64",
"4 	c #43433D",
"5 	c #6B6B64",
"6 	c #361819",
"7 	c #1A1414",
"8 	c #4B4545",
"9 	c #756B67",
"0 	c #948C86",
"a 	c #88695A",
"b 	c #561D1C",
"c 	c #75675B",
"d 	c #6B6C6B",
"e 	c #33353A",
"f 	c #787576",
"g 	c #534D4B",
"h 	c #747B7B",
"i 	c #6C7373",
"j 	c #636463",
"k 	c #58564A",
"l 	c #3B3B35",
"m 	c #261817",
"n 	c #5B5555",
"o 	c #69665A",
"p 	c #362827",
"q 	c #79766A",
"r 	c #989689",
"s 	c #6B3D43",
"t 	c #746D73",
"u 	c #737473",
"v 	c #5C625C",
"w 	c #63645C",
"x 	c #33332D",
"y 	c #272827",
"z 	c #242A2C",
"A 	c #4A1013",
"B 	c #88867A",
"C 	c #7B7B74",
"D 	c #53555A",
"E 	c #535454",
"F 	c #2C3334",
"G 	c #838483",
"H 	c #7B7C7B",
"I 	c #747A74",
"J 	c #595C64",
"K 	c #485349",
"L 	c #3C4343",
"M 	c #56463B",
"N 	c #A49C96",
"O 	c #949A94",
"P 	c #888586",
"Q 	c #7C8483",
"R 	c #43454A",
"S 	c #3C444B",
"T 	c #343B3C",
"U 	c #60532F",
"V 	c #5C6363",
"W 	c #687269",
"X 	c #848C8B",
"Y 	c #464A57",
"Z 	c #363A47",
"` 	c #2C343B",
" .	c #564946",
"..	c #7C837C",
"+.	c #6C736C",
"@.	c #4C545B",
"#.	c #2F354C",
"$.	c #272937",
"%.	c #945D59",
"&.	c #848A84",
"*.	c #545C63",
"=.	c #A39073",
"-.	c #948D93",
";.	c #8B8B84",
">.	c #ABACA4",
",.	c #A8A699",
"'.	c #83837C",
").	c #AE928B",
"!.	c #8B8D8B",
"~.	c #788379",
"{.	c #8C928C",
"].	c #545B5B",
"^.	c #8F8C74",
"/.	c #899388",
"(.	c #3B3D43",
"_.	c #543C45",
":.	c #3A363A",
"<.	c #939593",
"[.	c #5B5B54",
"}.	c #989A99",
"|.	c #4C524C",
"1.	c #867D83",
"2.	c #B6B6AA",
"3.	c #A3A49C",
"4.	c #A6A9A6",
"5.	c #4B4D52",
"6.	c #665D64",
"7.	c #120C0C",
"8.	c #1C221B",
"9.	c #B4ACA6",
"0.	c #B1AA97",
"a.	c #777C83",
"b.	c #0B0B0C",
"c.	c #131314",
"d.	c #384339",
"e.	c #443D43",
"f.	c #020203",
"g.	c #586668",
"h.	c #181709",
"i.	c #232424",
"j.	c #3B3434",
"k.	c #748272",
"l.	c #302E15",
"m.	c #4C5353",
"n.	c #332C2C",
"o.	c #26251B",
"p.	c #48463A",
"q.	c #3B3C3C",
"r.	c #180D15",
"s.	c #38362A",
"t.	c #191817",
"u.	c #13120D",
"v.	c #2B2B25",
"w.	c #343A35",
"x.	c #241D23",
"y.	c #586359",
"z.	c #B7BAB5",
"A.	c #1C2224",
"B.	c #878C93",
"C.	c #C5BAB0",
"D.	c #342D33",
"E.	c #221C1C",
"F.	c #0B0A05",
"G.	c #333434",
"H.	c #050A0B",
"I.	c #1B1B1C",
"J.	c #545A54",
"K.	c #2B2C2C",
"L.	c #983536",
"M.	c #1B1C22",
"N.	c #1C232B",
"O.	c #0D1213",
"P.	c #0C141A",
"Q.	c #434444",
"R.	c #161A25",
"S.	c #120D12",
"T.	c #6E6F53",
"U.	c #2B322B",
"V.	c #23242A",
"W.	c #0C0C12",
"X.	c #3C423D",
"Y.	c #D1CAB6",
"Z.	c #C6C6BA",
"`.	c #D5D6CA",
" +	c #2B2D33",
".+	c #14151A",
"++	c #0C120B",
"@+	c #343C43",
"#+	c #2B3844",
"$+	c #060914",
"%+	c #242C33",
"&+	c #544D53",
"*+	c #192628",
"=+	c #192F33",
"-+	c #151A1B",
"  . . + + . @       . # $ % & * = - ; > , ' . ' + . . . ' > ) ! * ! ) ~ ! ! > { { > ] ^ / * ( _ : ( * * * < [ [ } | 1 2 3 4 : 5 ",
"  . ' + + ' . . .   6 # # 7 2 8 - * 9 ] # ' ' ' + + ' . . * ! ! = 9 ~ 0 0 ] a { b c ) 0 ~ d < e f g * < ( [ h i [ j * k 2 l & < ",
". ' + + + + + . m . ' 6 $ - 8 g n o c ] > 6 . . . . . . p ! ~ c q 9 9 r 9 ~ a s { > a q ( t ( < < d u d ( v u ( < n w w & x y z ",
". ' ' + A A + . ' . . 6 $ = 2 * o o = c a > 6 . . . ' m * B ~ o 9 ! c 0 ~ ) ] s b a ! q q C d d j ( u < ( d d < D * j _ < E | F ",
". . ' A A + ' ' ' . . + # = = * = o = > a > 6 . . ' . 6 a 0 ! c ! ! a ! ~ ) a s b a c = ~ C _ ( d G _ H I u J D D w j H < 1 K L ",
"' ' ' + A + ' ' ' ' . + # = M M c c c c a > 6 . . . . 6 ~ N r ~ ) ] c ) ] ] ] > b > 9 9 ~ u [ v [ H O f P Q i i [ j D d J R S T ",
"' ' ' + A + ' ' ' ' . m # * $ = a ! c > a > 6 ' ' . . ; 0 ^ r 0 0 ) c ! ] ! a U b U * 9 g < d [ V W X H d I h i [ 3 ( j J Y Z ` ",
"' ' ' + A + + + + ' . ' M c = = c ! = > c  .6 ' ' ' . # ! ! q 0 ! ~ ! ! ] ] a > { > 9 ~ n d u u i h ..u d d I +.( 3 ( i @.Y #.$.",
"' ' ' + + + + A A + + 6 = ! > = c c  .* *  .6 ' + ' . p o 9 9 _ 5 c ! ] ! ) ] %.{ a 9 ~ d C / / O C : r &._ f q +._ u i *.Y Z $.",
"' ' + ' ' ' + A A + + 6 > ] =  .* = * = *  .A ' A + ' ; * ~ o w o q ! ] ] =.=.%.{ ] ~ q _ -.: ;.~ C >.,.'.< j ( f ..( H Q *.Y Z ",
"' ' + ' + A A + + ' + 6 > ] > = c * =  .9 c $ + + + ' - q ! * 9 * * 9 ] ] ).).%.{ > ! k d !._ _ C C N ,.: Q i j &.5 w ~.h [ D R ",
"' + + + ' + A A ' + ' 6 = a * = = = =  .! c ; + + ' . p 9 q o 5 5 * c ] ] =.=.%.{ a ~ q f ( j _ '.B ;.N / {.[ I h 5 q I h [ ].R ",
"' + + A + + A + ' + + 6  .c c * k = = k = # 6 ' + + . ; * c 9 9 5 ~ ^.=.) ] ] a { c ~ B _ 9 w C ;.;.'.0 ;.X /.;.'.'.'.I ..+.].(.",
"' + + A A + ' + ' ' + 6 M a ! c o c 9 o * _.; ' + + . 6  .* ~ 9 o q ^.) ) ] ] a { > ~ 0 f H 5 C &./ ;.;.0 r / '.C '.C ....3 < :.",
"' + + + + + + + ' ' ' + # > 9 c c = = = - $ ; ' + + ' 6 = = 0 9 * o c ! a ] a > U c ! ~ f H I C ;./ r '.0 ~ / <...C C H f j [.(.",
"' + 6 + ' 6 { ; + . . 6 M c c = c * = *  .# ; + + A + 6 ~ q 5 9 * * o > c ] a > { > ~ 0 G I ( G : 0 ;.;.: >.N !...'.: : }.P ( D ",
"' + + ; $ $ # ; 6 . . 6  .9 c * c c *  .*  .; + ' A ' ' 8 |.| ( C 5 * 9 a ! ] %.{ > ~ ~ / &.< 1.P C 5 0 ,.2.3.{.!.: 4.;.q ..d 5.",
"+ + A # M # M ; +   . + M c * = o = 6.* * > ; + + A ' . 7.8.z d P * 9 ! c a ] %.{ a ) 0 9.!.h t t 9 '.r 0.0.;.G P : N : f C h a.",
"+ A A $ > M M $ 6   7.6 M c 9  .o * = > * > ; ' ' A + . b.c.d.f 0 * * ! c 9 ] a b a ) ~ C u j u ~ I I './ 3.r B ;.P : : ..+.V e.",
"+ A A { > = M # 6     6 = 9 B o o 9  .c c  .$ ' + b +   f.f.m * q * o 9 c ! ] a $ > ] 9 ( P f ~ G ~.I B ! q 0 ;.;.;./ / {.~.g.L ",
"A + A ; M = M $ h.  . ;  .9 0 ~ ~ 9 > > > # $ + + 6 '   i.j.n n n * 9 q = ~ ) a $ > ] 9 ~ !.t ( G Q H _ o * B B : N 3./.~.k.W J ",
"A + A ; $ ; ; m   . . 6  . .* *  .; $ ; p $ A A A 6 . f.y * * ( * g o ~ ~ 9 ! c b s c * ~ {.P t C C 9 o c o q '.C ;.: ;.I |.g.@.",
"A + ; $ 6 ; ; ' . . 7 l.M = # m 7.. ' . . . ' A A A ' . 4 * - g n [.[.o o o c > b { c 9 * f O -.f 5 o k 9 q * _ ( o 9 q C +.m.1 ",
"+ + $ $ $ + + + ' . . p M  . .8 n.m 6 '   . ' A A A ' . 7 o.o.4 w j [.k p.* c > #  .] 0 ~ d f -.q - p.9 P ) = o o k ~ B d _ < q.",
"' ' ; # $ ' ' ; ;   r.p $ - * * - s.; ; ; ; A A A + ' . 7.t.o.j.D < 1 8 - k = M 6 $ 9 9 * * n ~ 1.8 e.~ P ~ * 5 o q ^.^.C _ d q.",
"+ + ; $ $ . m ; $ . r.p p - =  .n.p p , # # $ ' A + .   u.v.w.q.E d ( 9 ( ( * # ' ; > 9 * w ~ ,.>.P f P ~ 9 9 B ~ 9 '.B _ | ( E ",
"+ + + p l.  p s.m 7.  p ; p M - l p - $ = $ , + A + ' m 4 2 2 s.j.8 e.8 p.= * # 6 > a ] q d d / N <.P f 0 P ~ -.;.& q 3.2.: '.w ",
"A + ; # , h.- - . 7.  - # ; s.p - s.- M M ; ; 6 A + + m - g g v.x.j.- - % - c c $ { > c = n G P ~ 9 ~ o ) N N 4.G I <.>.N ;.'.< ",
"A A $ M M ; - $ ' . h.-  .= - - l - M  .p.# # b A + + p 5 * E y o.8 g n = * 9 > # a a a * E f u 9 [._ 5 C <.N }.f f !.P u j ( :.",
"A + ; # # ; # # 6 . 7.p = c M p s.- k  .- $ $ b A A + p 9 [.& | l 4 * k  .9 ] > ; $ ! ^ ) C [.j ( [.q C 0 / P f P '.;.&.f J E i.",
"A + ; ; M $  .> ; . 7.p M = M s.- k o * M - $ ; + + ' 6  .& g * [.[.q 9 9 ( 9 c M 2 ~ 0 0 B ( q ~ q '.;.~ P C ( : 0 !.H d d < x ",
"b A $ s # ; > a = . 7.p $ M - 2 & k p.2 = M $ b A A ' m p.n k w * o k ! q 9  .c k ( G ~ * q 9 * P '.: r _ _ P d ;.;.;.f w W ( q.",
"A A # a M $ = = ; 7 m , ; $ - g & M - p.k M # b + A ' . * [.4 o 9 B * 9 ~ 9 = c 9 5 ~ ~ q C ( C 4.4.B : '.u : ..~.r : I 3 g.V T ",
"A A s ] s # = M p 7 m p $ M p.k & p.- M M M $ $ + b + . 9 k 4 q ! q q q ) ~ 9 9 ! 5 q P t P '.: 9.>.'.H f t !.'.: 2.: ~.y.V ].z ",
"A A { c s # = M p 7 7 p # = * 5 * p.M M - M > > ' b + m k 4 4 9 0 q * q '.q q 9 q _ d P -.0 ~ 0 ,.~ _ !.G d t H z.z.f '.f @.1 A.",
"A b $ > c  . .# ; 7 7 ; M = o q * - p.M s.- # ; ' A + m g 8 w o 0 N 0 ! o k _ B 0 B H P -.G ~ N 0 o f u >.B.J f : G &.!.P f d R ",
"A b # a ] M = M # m m $ M M c ! c = *  .- p $ ; + A + 6 q ~ P ~ r 2.2.~ '.q _ ;.~ q 9 t H 5.(.C r q P H C P 4.C.2.2.;.t -.-.t D.",
"A A $ c M l.= > # 7 . p # M ! ! 9 = k  .- $ $ b + A A 6 ~ * g ) ~ 0 '.C P : C C w k g ~ ~ $.5.0 ~ '.9 '.0 ( P >.N '.k g = * g E.",
"A b $ > $ $ M a = 6 . $ c c ! a c =  .M M M # b A A A + p.j.x w '.'.2 w * ~ ( & :.2 5 ! o j.n '.& w q ( 8 * 8 k  .p.- M  . .g - ",
"A b { M # $ $ = = m . # > 9 ) c =  . .= = # # ; A A A ' h.F.t.p.q ~.< ( * f 9 q.G.i.1 k s.7 1 & [.k * g j.p - - - - c M s.8  .- ",
"A b s =  .M $ =  ., m $ c * q 0 *  .= = M $ p + ' A A .   f.o.o.4 q & g g o '.D H.7.% n.s.G.1 I.g * # M = ; >  .$ - - s.p.( J.v.",
"+ A >  .=  .# M $ , 6 $ =  .~ 9.B o  .M M $ p 6 ' A b . m 6 6 m - 0 ~ * 4 4 1 (.:.x.:.P j q.K.T & - = * ! > $ p - j.g o ( J.| F ",
"A $ # $ M $ $ ; 6 p 6 $ M = ~ 0.0.! M M # $ # A A A A ' ' $ L.b + 6 p 8 2 j D (.F i.} G L z F @.| x n C 5 4 o.% - g E _ j m.m.z ",
"b { > 6 ; p $ 6 M ; 6 ; s c ^ N ^ ] > M # # # b A A A ' p ] ] A ' ' . ; - 1 :.K.M.N.E h w.b.O.1 |.K.j ( - 1 & g g E d P u [ V P.",
"b b s M $ - - $ ; $ ; ; M c ) ~ a c a a a > = { A A A ' ' +  .7.  . . * M l Q.& G.t.K.q.D.t.E.q.< g E :.8 9 ! '._ _ !.!.1 R } R.",
"b b > > c = = * $ # ; + $ = ! a M M ] ] c c a { A A A + ' @ O.f.f.. m ! = u.2 2 4 K.K.Q.8 8 :.n g 8 g 8 d ~ ~ _ C f j n Q.m.(.I.",
"{ ; s = c * ! ) M # ; + p  .c c = c ! ! c c c s A A b + r.n.S.f.f.  2 ) T.j.* v 4 U.U.T F e V.i.D.x.j w 4 g _ d w C d w x < q.c.",
"%.b $ # * 9 N C.) = $ ; $ $ > ! ! ^.! ~ ~ ) ] a b A { 6 m - W.D.K.w._ B = * _ d X.z F z F (.D.b.i.K.< x [.( [ 5 B f n [.x J.Q.7.",
"> $ > > c ! 2.Y.0  .s.$ # M a ] ^.! * ! 0 ^ ) ! $ A { + ' n.- < ( u 5 B o 9 ( |.v.8.R E Q.q.y S.V.Q.w.j.< i h u C [.2 w J.1 q.@ ",
"{ %.c c 9 B Z.`.0 2 ; $ # s c ] ! ! o ) ^ ) ~ 9 ; A { A . - n n * 5 [.B 0.~ k l F.y - w.K.K.E.7.V.X.y j.< D R j < j _ +.X u < M.",
"{ %.s > c 0 `.Z.q 4 p.p # # c ! ) ) B 0 ).9 9 c 6 A { A '  .* g * * p.! N ) k p.v.j.g j.E.K.i.c.% 4 q.- 8 :.K.V.:.M.A. +D D q.I.",
"{ > s = = ~ 0.N 5 & 2 $ # # c q ! B ~ 0 ) c c c A A { b + * 9 _.* 9 2 * ~ ~ k p.t.n.8 8 K.n.E.@ c.G.- - 8 D.x.I.c..+M.c.K.e.K.I.",
"s s s =  .o 9 w _ = M = > > c ^.) ^.! 9 9 9 9 c A A { b + 1.f n u h ].< d * Q.q.K.(.R Z e e x.@   o.x t.:.M.@ c.I.I.I.K.I.w.c.++",
"{ s > $ k c 0 * g c # c ] a c ! ) r ~ = c ! ! c ; A { A + ~ t 5 ( d d d d E R Q.F (.@+#+Z (.y .+S.v.o.c.M.x.I.b.t.V.t.% I.b.c.t.",
"{ a M M * o P N g = = > > ] ! ! 0 ) q 9 ! 9 c 9 $ + { 6 . 9 9 9 P f < j < 1 E < E G.V.D.Y G.x..+M.G.4 | G.e S.b.c.b.f.f.I.b.f.M.",
"> # $ M 9 = o 9.9  .M M > c ! ~ ) 9 c 9 ! = 9 c A A { A . ( o ~ 0 ~ * E [.2 g * g E.M.V.x.@ @ b.b.e 1 E 1 K.$+.+I.F.F.b.b.(.e z ",
"{ > 6 M * c q ! ! > M > c * ~ ! q o ~ ) ! 9 ! a $ A { ; ' 9 o ~ N ~ * [.[.k 5 C n x.x..+.+f.b.b.H.F %+:.1 e.M.F z 8.w.K.K.4 (.(.",
"a c M p M * 0 ~ c = M > c ] o q q ) ~ ~ ! ! ! 9 ; A s ; ' * q P N ;.j < w o ! q 2 D.K.b..+  ++i.z F z G.8 &+e.5.V v J.v g y K.@+",
"> c  .- j.p * = = > = > * ! c o o o o ~ ^ a c c + ' { 6 6 N o -.9.~ [.n.& = o * v.x.D.@ x.n j.E.8 J (.d 1.8 j.E V < J.< K.i.5.1 ",
"$ ).M $ m p  .= M  .= #  .q q o * * = = ! c c c m ' { + ; 9.t t _ j 1 E w 9 o s.n.V.i.M.(.1 G.g - R K.J f e.K.8 1 I.i.w.1 ( d 1 ",
"{ ) )  .p ~ * - o.; -  .= q q k * = = = ! ! > = + ' $ 6 p 0 5 n * d < H H !.~ - E.L P.*+R v Q.C g K.c.:.5.:. +e.(.V.I.V. + + +t.",
"$ # a - # ~ ~ # - p p.* ! ~ * * o * M = ! 0.^.k l.' A + . n E n.e.1 } I }.'.0 * q.F =+F } i h d < .+-+z V.i.K.e i.y e i.f.@ i.n.",
"; #  . .o.; M ; p h.- * k 8 k - 2 k  .= * = * p.m + A + m Q.d.z j. +m.i V _ g E q.e -+T L H !.j 1 I.O.M.M.c.i.c.@ W. +x.S.p Q.K.",
"; $  .# 7 p , m 6 m h.p % p p j.p j.8 #  .; M g m ' 6 + m j.w.K.z :.1 < y n.j.j.n.G.W.(.m.m.f 8 D.i.I.W.b.b.f.@ @ S.c.S.x.- - n."};
